<?xml version="1.0" standalone="no"?>
<svg xmlns="http://www.w3.org/2000/svg" width="500" height="500"><defs><clipPath id="clip-path-dot-color"><path d="M 19 187v 14h 7a 7 7, 0, 0, 0, 0 -14" transform="rotate(-90,26,194)"/><path d="M 19 201v 14h 14v -7a 7 7, 0, 0, 0, -7 -7" transform="rotate(180,26,208)"/><circle cx="26" cy="236" r="7" transform="rotate(0,26,236)"/><path d="M 19 271v 14h 7a 7 7, 0, 0, 0, 0 -14" transform="rotate(-90,26,278)"/><rect x="19" y="285" width="14" height="14" transform="rotate(0,26,292)"/><rect x="19" y="299" width="14" height="14" transform="rotate(0,26,306)"/><path d="M 19 313v 14h 7a 7 7, 0, 0, 0, 0 -14" transform="rotate(90,26,320)"/><path d="M 19 341v 14h 7a 7 7, 0, 0, 0, 0 -14" transform="rotate(180,26,348)"/><path d="M 33 131v 14h 7a 7 7, 0, 0, 0, 0 -14" transform="rotate(180,40,138)"/><path d="M 33 159v 14h 14v -7a 7 7, 0, 0, 0, -7 -7" transform="rotate(-90,40,166)"/><path d="M 33 173v 14h 7a 7 7, 0, 0, 0, 0 -14" transform="rotate(90,40,180)"/><rect x="33" y="201" width="14" height="14" transform="rotate(0,40,208)"/><circle cx="40" cy="264" r="7" transform="rotate(0,40,264)"/><rect x="33" y="341" width="14" height="14" transform="rotate(0,40,348)"/><path d="M 33 355v 14h 14v -7a 7 7, 0, 0, 0, -7 -7" transform="rotate(180,40,362)"/><path d="M 47 131v 14h 7a 7 7, 0, 0, 0, 0 -14" transform="rotate(0,54,138)"/><rect x="47" y="159" width="14" height="14" transform="rotate(0,54,166)"/><path d="M 47 201v 14h 7a 7 7, 0, 0, 0, 0 -14" transform="rotate(0,54,208)"/><path d="M 47 229v 14h 7a 7 7, 0, 0, 0, 0 -14" transform="rotate(180,54,236)"/><path d="M 47 271v 14h 7a 7 7, 0, 0, 0, 0 -14" transform="rotate(180,54,278)"/><circle cx="54" cy="306" r="7" transform="rotate(0,54,306)"/><path d="M 47 341v 14h 14v -7a 7 7, 0, 0, 0, -7 -7" transform="rotate(0,54,348)"/><rect x="47" y="355" width="14" height="14" transform="rotate(0,54,362)"/><rect x="61" y="159" width="14" height="14" transform="rotate(0,68,166)"/><rect x="61" y="173" width="14" height="14" transform="rotate(0,68,180)"/><path d="M 61 187v 14h 7a 7 7, 0, 0, 0, 0 -14" transform="rotate(90,68,194)"/><path d="M 61 229v 14h 14v -7a 7 7, 0, 0, 0, -7 -7" transform="rotate(0,68,236)"/><path d="M 61 243v 14h 7a 7 7, 0, 0, 0, 0 -14" transform="rotate(90,68,250)"/><rect x="61" y="271" width="14" height="14" transform="rotate(0,68,278)"/><path d="M 61 285v 14h 7a 7 7, 0, 0, 0, 0 -14" transform="rotate(90,68,292)"/><path d="M 61 313v 14h 7a 7 7, 0, 0, 0, 0 -14" transform="rotate(180,68,320)"/><rect x="61" y="355" width="14" height="14" transform="rotate(0,68,362)"/><path d="M 75 145v 14h 7a 7 7, 0, 0, 0, 0 -14" transform="rotate(-90,82,152)"/><rect x="75" y="159" width="14" height="14" transform="rotate(0,82,166)"/><rect x="75" y="173" width="14" height="14" transform="rotate(0,82,180)"/><path d="M 75 201v 14h 14v -7a 7 7, 0, 0, 0, -7 -7" transform="rotate(-90,82,208)"/><path d="M 75 215v 14h 7a 7 7, 0, 0, 0, 0 -14" transform="rotate(90,82,222)"/><path d="M 75 257v 14h 14v -7a 7 7, 0, 0, 0, -7 -7" transform="rotate(-90,82,264)"/><path d="M 75 271v 14h 14v -7a 7 7, 0, 0, 0, -7 -7" transform="rotate(90,82,278)"/><path d="M 75 313v 14h 14v -7a 7 7, 0, 0, 0, -7 -7" transform="rotate(0,82,320)"/><rect x="75" y="327" width="14" height="14" transform="rotate(0,82,334)"/><rect x="75" y="341" width="14" height="14" transform="rotate(0,82,348)"/><path d="M 75 355v 14h 14v -7a 7 7, 0, 0, 0, -7 -7" transform="rotate(90,82,362)"/><rect x="89" y="159" width="14" height="14" transform="rotate(0,96,166)"/><rect x="89" y="173" width="14" height="14" transform="rotate(0,96,180)"/><rect x="89" y="187" width="14" height="14" transform="rotate(0,96,194)"/><path d="M 89 201v 14h 14v -7a 7 7, 0, 0, 0, -7 -7" transform="rotate(90,96,208)"/><circle cx="96" cy="236" r="7" transform="rotate(0,96,236)"/><path d="M 89 257v 14h 7a 7 7, 0, 0, 0, 0 -14" transform="rotate(0,96,264)"/><rect x="89" y="327" width="14" height="14" transform="rotate(0,96,334)"/><path d="M 89 341v 14h 14v -7a 7 7, 0, 0, 0, -7 -7" transform="rotate(90,96,348)"/><circle cx="110" cy="138" r="7" transform="rotate(0,110,138)"/><path d="M 103 159v 14h 7a 7 7, 0, 0, 0, 0 -14" transform="rotate(0,110,166)"/><rect x="103" y="187" width="14" height="14" transform="rotate(0,110,194)"/><path d="M 103 215v 14h 7a 7 7, 0, 0, 0, 0 -14" transform="rotate(180,110,222)"/><circle cx="110" cy="250" r="7" transform="rotate(0,110,250)"/><path d="M 103 271v 14h 7a 7 7, 0, 0, 0, 0 -14" transform="rotate(180,110,278)"/><circle cx="110" cy="306" r="7" transform="rotate(0,110,306)"/><rect x="103" y="327" width="14" height="14" transform="rotate(0,110,334)"/><path d="M 103 355v 14h 7a 7 7, 0, 0, 0, 0 -14" transform="rotate(180,110,362)"/><path d="M 117 173v 14h 7a 7 7, 0, 0, 0, 0 -14" transform="rotate(-90,124,180)"/><rect x="117" y="187" width="14" height="14" transform="rotate(0,124,194)"/><path d="M 117 215v 14h 14v -7a 7 7, 0, 0, 0, -7 -7" transform="rotate(0,124,222)"/><path d="M 117 229v 14h 7a 7 7, 0, 0, 0, 0 -14" transform="rotate(90,124,236)"/><path d="M 117 257v 14h 14v -7a 7 7, 0, 0, 0, -7 -7" transform="rotate(-90,124,264)"/><rect x="117" y="271" width="14" height="14" transform="rotate(0,124,278)"/><path d="M 117 285v 14h 7a 7 7, 0, 0, 0, 0 -14" transform="rotate(90,124,292)"/><path d="M 117 327v 14h 7a 7 7, 0, 0, 0, 0 -14" transform="rotate(0,124,334)"/><path d="M 117 355v 14h 7a 7 7, 0, 0, 0, 0 -14" transform="rotate(0,124,362)"/><path d="M 131 33v 14h 14v -7a 7 7, 0, 0, 0, -7 -7" transform="rotate(-90,138,40)"/><rect x="131" y="47" width="14" height="14" transform="rotate(0,138,54)"/><path d="M 131 61v 14h 14v -7a 7 7, 0, 0, 0, -7 -7" transform="rotate(180,138,68)"/><path d="M 131 89v 14h 14v -7a 7 7, 0, 0, 0, -7 -7" transform="rotate(-90,138,96)"/><path d="M 131 103v 14h 7a 7 7, 0, 0, 0, 0 -14" transform="rotate(90,138,110)"/><path d="M 131 145v 14h 14v -7a 7 7, 0, 0, 0, -7 -7" transform="rotate(-90,138,152)"/><path d="M 131 159v 14h 14v -7a 7 7, 0, 0, 0, -7 -7" transform="rotate(180,138,166)"/><path d="M 131 187v 14h 7a 7 7, 0, 0, 0, 0 -14" transform="rotate(0,138,194)"/><path d="M 131 243v 14h 7a 7 7, 0, 0, 0, 0 -14" transform="rotate(-90,138,250)"/><rect x="131" y="257" width="14" height="14" transform="rotate(0,138,264)"/><rect x="131" y="271" width="14" height="14" transform="rotate(0,138,278)"/><circle cx="138" cy="320" r="7" transform="rotate(0,138,320)"/><path d="M 131 341v 14h 7a 7 7, 0, 0, 0, 0 -14" transform="rotate(180,138,348)"/><path d="M 131 439v 14h 14v -7a 7 7, 0, 0, 0, -7 -7" transform="rotate(-90,138,446)"/><path d="M 131 453v 14h 14v -7a 7 7, 0, 0, 0, -7 -7" transform="rotate(180,138,460)"/><path d="M 145 19v 14h 7a 7 7, 0, 0, 0, 0 -14" transform="rotate(-90,152,26)"/><rect x="145" y="33" width="14" height="14" transform="rotate(0,152,40)"/><rect x="145" y="61" width="14" height="14" transform="rotate(0,152,68)"/><rect x="145" y="75" width="14" height="14" transform="rotate(0,152,82)"/><path d="M 145 89v 14h 14v -7a 7 7, 0, 0, 0, -7 -7" transform="rotate(90,152,96)"/><path d="M 145 131v 14h 7a 7 7, 0, 0, 0, 0 -14" transform="rotate(-90,152,138)"/><rect x="145" y="145" width="14" height="14" transform="rotate(0,152,152)"/><rect x="145" y="159" width="14" height="14" transform="rotate(0,152,166)"/><path d="M 145 173v 14h 7a 7 7, 0, 0, 0, 0 -14" transform="rotate(90,152,180)"/><path d="M 145 201v 14h 7a 7 7, 0, 0, 0, 0 -14" transform="rotate(180,152,208)"/><circle cx="152" cy="236" r="7" transform="rotate(0,152,236)"/><path d="M 145 257v 14h 14v -7a 7 7, 0, 0, 0, -7 -7" transform="rotate(0,152,264)"/><rect x="145" y="271" width="14" height="14" transform="rotate(0,152,278)"/><rect x="145" y="285" width="14" height="14" transform="rotate(0,152,292)"/><path d="M 145 299v 14h 14v -7a 7 7, 0, 0, 0, -7 -7" transform="rotate(180,152,306)"/><rect x="145" y="341" width="14" height="14" transform="rotate(0,152,348)"/><path d="M 145 383v 14h 14v -7a 7 7, 0, 0, 0, -7 -7" transform="rotate(-90,152,390)"/><path d="M 145 397v 14h 14v -7a 7 7, 0, 0, 0, -7 -7" transform="rotate(180,152,404)"/><path d="M 145 425v 14h 14v -7a 7 7, 0, 0, 0, -7 -7" transform="rotate(-90,152,432)"/><rect x="145" y="439" width="14" height="14" transform="rotate(0,152,446)"/><rect x="145" y="453" width="14" height="14" transform="rotate(0,152,460)"/><path d="M 145 467v 14h 14v -7a 7 7, 0, 0, 0, -7 -7" transform="rotate(180,152,474)"/><rect x="159" y="33" width="14" height="14" transform="rotate(0,166,40)"/><path d="M 159 61v 14h 14v -7a 7 7, 0, 0, 0, -7 -7" transform="rotate(0,166,68)"/><path d="M 159 75v 14h 14v -7a 7 7, 0, 0, 0, -7 -7" transform="rotate(90,166,82)"/><path d="M 159 103v 14h 7a 7 7, 0, 0, 0, 0 -14" transform="rotate(-90,166,110)"/><path d="M 159 117v 14h 14v -7a 7 7, 0, 0, 0, -7 -7" transform="rotate(180,166,124)"/><rect x="159" y="145" width="14" height="14" transform="rotate(0,166,152)"/><path d="M 159 201v 14h 14v -7a 7 7, 0, 0, 0, -7 -7" transform="rotate(0,166,208)"/><path d="M 159 215v 14h 7a 7 7, 0, 0, 0, 0 -14" transform="rotate(90,166,222)"/><path d="M 159 271v 14h 7a 7 7, 0, 0, 0, 0 -14" transform="rotate(0,166,278)"/><rect x="159" y="299" width="14" height="14" transform="rotate(0,166,306)"/><rect x="159" y="313" width="14" height="14" transform="rotate(0,166,320)"/><rect x="159" y="327" width="14" height="14" transform="rotate(0,166,334)"/><rect x="159" y="341" width="14" height="14" transform="rotate(0,166,348)"/><rect x="159" y="383" width="14" height="14" transform="rotate(0,166,390)"/><rect x="159" y="397" width="14" height="14" transform="rotate(0,166,404)"/><rect x="159" y="411" width="14" height="14" transform="rotate(0,166,418)"/><rect x="159" y="425" width="14" height="14" transform="rotate(0,166,432)"/><rect x="159" y="453" width="14" height="14" transform="rotate(0,166,460)"/><path d="M 159 467v 14h 14v -7a 7 7, 0, 0, 0, -7 -7" transform="rotate(90,166,474)"/><path d="M 173 19v 14h 7a 7 7, 0, 0, 0, 0 -14" transform="rotate(-90,180,26)"/><path d="M 173 33v 14h 14v -7a 7 7, 0, 0, 0, -7 -7" transform="rotate(90,180,40)"/><rect x="173" y="117" width="14" height="14" transform="rotate(0,180,124)"/><rect x="173" y="145" width="14" height="14" transform="rotate(0,180,152)"/><rect x="173" y="159" width="14" height="14" transform="rotate(0,180,166)"/><path d="M 173 173v 14h 14v -7a 7 7, 0, 0, 0, -7 -7" transform="rotate(180,180,180)"/><path d="M 173 229v 14h 7a 7 7, 0, 0, 0, 0 -14" transform="rotate(180,180,236)"/><circle cx="180" cy="264" r="7" transform="rotate(0,180,264)"/><path d="M 173 285v 14h 14v -7a 7 7, 0, 0, 0, -7 -7" transform="rotate(-90,180,292)"/><rect x="173" y="299" width="14" height="14" transform="rotate(0,180,306)"/><rect x="173" y="313" width="14" height="14" transform="rotate(0,180,320)"/><rect x="173" y="327" width="14" height="14" transform="rotate(0,180,334)"/><rect x="173" y="341" width="14" height="14" transform="rotate(0,180,348)"/><path d="M 173 355v 14h 7a 7 7, 0, 0, 0, 0 -14" transform="rotate(90,180,362)"/><path d="M 173 383v 14h 14v -7a 7 7, 0, 0, 0, -7 -7" transform="rotate(0,180,390)"/><rect x="173" y="397" width="14" height="14" transform="rotate(0,180,404)"/><rect x="173" y="425" width="14" height="14" transform="rotate(0,180,432)"/><rect x="173" y="453" width="14" height="14" transform="rotate(0,180,460)"/><path d="M 187 47v 14h 7a 7 7, 0, 0, 0, 0 -14" transform="rotate(-90,194,54)"/><path d="M 187 61v 14h 14v -7a 7 7, 0, 0, 0, -7 -7" transform="rotate(180,194,68)"/><path d="M 187 103v 14h 7a 7 7, 0, 0, 0, 0 -14" transform="rotate(-90,194,110)"/><rect x="187" y="117" width="14" height="14" transform="rotate(0,194,124)"/><rect x="187" y="131" width="14" height="14" transform="rotate(0,194,138)"/><rect x="187" y="145" width="14" height="14" transform="rotate(0,194,152)"/><rect x="187" y="159" width="14" height="14" transform="rotate(0,194,166)"/><rect x="187" y="173" width="14" height="14" transform="rotate(0,194,180)"/><path d="M 187 187v 14h 7a 7 7, 0, 0, 0, 0 -14" transform="rotate(90,194,194)"/><path d="M 187 215v 14h 7a 7 7, 0, 0, 0, 0 -14" transform="rotate(-90,194,222)"/><rect x="187" y="229" width="14" height="14" transform="rotate(0,194,236)"/><path d="M 187 285v 14h 14v -7a 7 7, 0, 0, 0, -7 -7" transform="rotate(0,194,292)"/><rect x="187" y="299" width="14" height="14" transform="rotate(0,194,306)"/><rect x="187" y="313" width="14" height="14" transform="rotate(0,194,320)"/><rect x="187" y="327" width="14" height="14" transform="rotate(0,194,334)"/><rect x="187" y="341" width="14" height="14" transform="rotate(0,194,348)"/><circle cx="194" cy="376" r="7" transform="rotate(0,194,376)"/><rect x="187" y="397" width="14" height="14" transform="rotate(0,194,404)"/><rect x="187" y="411" width="14" height="14" transform="rotate(0,194,418)"/><path d="M 187 425v 14h 14v -7a 7 7, 0, 0, 0, -7 -7" transform="rotate(90,194,432)"/><rect x="187" y="453" width="14" height="14" transform="rotate(0,194,460)"/><rect x="201" y="61" width="14" height="14" transform="rotate(0,208,68)"/><circle cx="208" cy="96" r="7" transform="rotate(0,208,96)"/><rect x="201" y="131" width="14" height="14" transform="rotate(0,208,138)"/><path d="M 201 229v 14h 7a 7 7, 0, 0, 0, 0 -14" transform="rotate(0,208,236)"/><path d="M 201 257v 14h 7a 7 7, 0, 0, 0, 0 -14" transform="rotate(180,208,264)"/><rect x="201" y="299" width="14" height="14" transform="rotate(0,208,306)"/><path d="M 201 341v 14h 7a 7 7, 0, 0, 0, 0 -14" transform="rotate(0,208,348)"/><path d="M 201 397v 14h 7a 7 7, 0, 0, 0, 0 -14" transform="rotate(0,208,404)"/><path d="M 201 453v 14h 7a 7 7, 0, 0, 0, 0 -14" transform="rotate(0,208,460)"/><circle cx="222" cy="40" r="7" transform="rotate(0,222,40)"/><path d="M 215 61v 14h 14v -7a 7 7, 0, 0, 0, -7 -7" transform="rotate(0,222,68)"/><path d="M 215 75v 14h 14v -7a 7 7, 0, 0, 0, -7 -7" transform="rotate(180,222,82)"/><path d="M 215 103v 14h 7a 7 7, 0, 0, 0, 0 -14" transform="rotate(-90,222,110)"/><rect x="215" y="117" width="14" height="14" transform="rotate(0,222,124)"/><rect x="215" y="131" width="14" height="14" transform="rotate(0,222,138)"/><path d="M 215 145v 14h 14v -7a 7 7, 0, 0, 0, -7 -7" transform="rotate(180,222,152)"/><path d="M 215 173v 14h 14v -7a 7 7, 0, 0, 0, -7 -7" transform="rotate(-90,222,180)"/><rect x="215" y="187" width="14" height="14" transform="rotate(0,222,194)"/><path d="M 215 201v 14h 7a 7 7, 0, 0, 0, 0 -14" transform="rotate(90,222,208)"/><path d="M 215 257v 14h 14v -7a 7 7, 0, 0, 0, -7 -7" transform="rotate(0,222,264)"/><rect x="215" y="271" width="14" height="14" transform="rotate(0,222,278)"/><rect x="215" y="285" width="14" height="14" transform="rotate(0,222,292)"/><path d="M 215 299v 14h 14v -7a 7 7, 0, 0, 0, -7 -7" transform="rotate(90,222,306)"/><path d="M 215 327v 14h 7a 7 7, 0, 0, 0, 0 -14" transform="rotate(180,222,334)"/><path d="M 215 355v 14h 7a 7 7, 0, 0, 0, 0 -14" transform="rotate(180,222,362)"/><path d="M 215 383v 14h 7a 7 7, 0, 0, 0, 0 -14" transform="rotate(180,222,390)"/><path d="M 215 425v 14h 7a 7 7, 0, 0, 0, 0 -14" transform="rotate(180,222,432)"/><circle cx="236" cy="26" r="7" transform="rotate(0,236,26)"/><path d="M 229 47v 14h 7a 7 7, 0, 0, 0, 0 -14" transform="rotate(180,236,54)"/><rect x="229" y="75" width="14" height="14" transform="rotate(0,236,82)"/><path d="M 229 89v 14h 7a 7 7, 0, 0, 0, 0 -14" transform="rotate(90,236,96)"/><path d="M 229 117v 14h 14v -7a 7 7, 0, 0, 0, -7 -7" transform="rotate(0,236,124)"/><rect x="229" y="131" width="14" height="14" transform="rotate(0,236,138)"/><path d="M 229 145v 14h 14v -7a 7 7, 0, 0, 0, -7 -7" transform="rotate(90,236,152)"/><path d="M 229 173v 14h 7a 7 7, 0, 0, 0, 0 -14" transform="rotate(0,236,180)"/><path d="M 229 215v 14h 14v -7a 7 7, 0, 0, 0, -7 -7" transform="rotate(-90,236,222)"/><rect x="229" y="229" width="14" height="14" transform="rotate(0,236,236)"/><path d="M 229 243v 14h 14v -7a 7 7, 0, 0, 0, -7 -7" transform="rotate(180,236,250)"/><rect x="229" y="271" width="14" height="14" transform="rotate(0,236,278)"/><path d="M 229 313v 14h 14v -7a 7 7, 0, 0, 0, -7 -7" transform="rotate(-90,236,320)"/><rect x="229" y="327" width="14" height="14" transform="rotate(0,236,334)"/><path d="M 229 355v 14h 14v -7a 7 7, 0, 0, 0, -7 -7" transform="rotate(0,236,362)"/><rect x="229" y="369" width="14" height="14" transform="rotate(0,236,376)"/><rect x="229" y="383" width="14" height="14" transform="rotate(0,236,390)"/><path d="M 229 411v 14h 14v -7a 7 7, 0, 0, 0, -7 -7" transform="rotate(-90,236,418)"/><rect x="229" y="425" width="14" height="14" transform="rotate(0,236,432)"/><path d="M 229 439v 14h 14v -7a 7 7, 0, 0, 0, -7 -7" transform="rotate(180,236,446)"/><rect x="243" y="47" width="14" height="14" transform="rotate(0,250,54)"/><path d="M 243 75v 14h 7a 7 7, 0, 0, 0, 0 -14" transform="rotate(0,250,82)"/><circle cx="250" cy="110" r="7" transform="rotate(0,250,110)"/><path d="M 243 131v 14h 7a 7 7, 0, 0, 0, 0 -14" transform="rotate(0,250,138)"/><circle cx="250" cy="194" r="7" transform="rotate(0,250,194)"/><rect x="243" y="215" width="14" height="14" transform="rotate(0,250,222)"/><rect x="243" y="229" width="14" height="14" transform="rotate(0,250,236)"/><rect x="243" y="243" width="14" height="14" transform="rotate(0,250,250)"/><rect x="243" y="257" width="14" height="14" transform="rotate(0,250,264)"/><path d="M 243 271v 14h 14v -7a 7 7, 0, 0, 0, -7 -7" transform="rotate(90,250,278)"/><path d="M 243 299v 14h 14v -7a 7 7, 0, 0, 0, -7 -7" transform="rotate(-90,250,306)"/><rect x="243" y="313" width="14" height="14" transform="rotate(0,250,320)"/><rect x="243" y="327" width="14" height="14" transform="rotate(0,250,334)"/><path d="M 243 341v 14h 14v -7a 7 7, 0, 0, 0, -7 -7" transform="rotate(180,250,348)"/><path d="M 243 369v 14h 14v -7a 7 7, 0, 0, 0, -7 -7" transform="rotate(0,250,376)"/><rect x="243" y="383" width="14" height="14" transform="rotate(0,250,390)"/><rect x="243" y="411" width="14" height="14" transform="rotate(0,250,418)"/><rect x="243" y="425" width="14" height="14" transform="rotate(0,250,432)"/><path d="M 243 439v 14h 14v -7a 7 7, 0, 0, 0, -7 -7" transform="rotate(90,250,446)"/><path d="M 257 19v 14h 7a 7 7, 0, 0, 0, 0 -14" transform="rotate(-90,264,26)"/><rect x="257" y="33" width="14" height="14" transform="rotate(0,264,40)"/><rect x="257" y="47" width="14" height="14" transform="rotate(0,264,54)"/><path d="M 257 61v 14h 7a 7 7, 0, 0, 0, 0 -14" transform="rotate(90,264,68)"/><path d="M 257 159v 14h 7a 7 7, 0, 0, 0, 0 -14" transform="rotate(-90,264,166)"/><path d="M 257 173v 14h 7a 7 7, 0, 0, 0, 0 -14" transform="rotate(90,264,180)"/><path d="M 257 215v 14h 14v -7a 7 7, 0, 0, 0, -7 -7" transform="rotate(0,264,222)"/><rect x="257" y="229" width="14" height="14" transform="rotate(0,264,236)"/><rect x="257" y="243" width="14" height="14" transform="rotate(0,264,250)"/><rect x="257" y="257" width="14" height="14" transform="rotate(0,264,264)"/><rect x="257" y="299" width="14" height="14" transform="rotate(0,264,306)"/><path d="M 257 327v 14h 14v -7a 7 7, 0, 0, 0, -7 -7" transform="rotate(0,264,334)"/><path d="M 257 341v 14h 14v -7a 7 7, 0, 0, 0, -7 -7" transform="rotate(90,264,348)"/><rect x="257" y="383" width="14" height="14" transform="rotate(0,264,390)"/><rect x="257" y="411" width="14" height="14" transform="rotate(0,264,418)"/><path d="M 257 425v 14h 14v -7a 7 7, 0, 0, 0, -7 -7" transform="rotate(90,264,432)"/><path d="M 257 453v 14h 14v -7a 7 7, 0, 0, 0, -7 -7" transform="rotate(-90,264,460)"/><path d="M 257 467v 14h 7a 7 7, 0, 0, 0, 0 -14" transform="rotate(90,264,474)"/><rect x="271" y="33" width="14" height="14" transform="rotate(0,278,40)"/><path d="M 271 75v 14h 7a 7 7, 0, 0, 0, 0 -14" transform="rotate(180,278,82)"/><circle cx="278" cy="110" r="7" transform="rotate(0,278,110)"/><path d="M 271 201v 14h 7a 7 7, 0, 0, 0, 0 -14" transform="rotate(180,278,208)"/><path d="M 271 229v 14h 14v -7a 7 7, 0, 0, 0, -7 -7" transform="rotate(0,278,236)"/><rect x="271" y="243" width="14" height="14" transform="rotate(0,278,250)"/><path d="M 271 257v 14h 14v -7a 7 7, 0, 0, 0, -7 -7" transform="rotate(90,278,264)"/><path d="M 271 299v 14h 14v -7a 7 7, 0, 0, 0, -7 -7" transform="rotate(0,278,306)"/><path d="M 271 313v 14h 7a 7 7, 0, 0, 0, 0 -14" transform="rotate(90,278,320)"/><path d="M 271 369v 14h 14v -7a 7 7, 0, 0, 0, -7 -7" transform="rotate(-90,278,376)"/><rect x="271" y="383" width="14" height="14" transform="rotate(0,278,390)"/><rect x="271" y="397" width="14" height="14" transform="rotate(0,278,404)"/><rect x="271" y="411" width="14" height="14" transform="rotate(0,278,418)"/><path d="M 271 439v 14h 7a 7 7, 0, 0, 0, 0 -14" transform="rotate(-90,278,446)"/><path d="M 271 453v 14h 14v -7a 7 7, 0, 0, 0, -7 -7" transform="rotate(90,278,460)"/><path d="M 285 19v 14h 7a 7 7, 0, 0, 0, 0 -14" transform="rotate(-90,292,26)"/><path d="M 285 33v 14h 14v -7a 7 7, 0, 0, 0, -7 -7" transform="rotate(90,292,40)"/><path d="M 285 75v 14h 14v -7a 7 7, 0, 0, 0, -7 -7" transform="rotate(0,292,82)"/><path d="M 285 89v 14h 7a 7 7, 0, 0, 0, 0 -14" transform="rotate(90,292,96)"/><circle cx="292" cy="124" r="7" transform="rotate(0,292,124)"/><path d="M 285 173v 14h 7a 7 7, 0, 0, 0, 0 -14" transform="rotate(-90,292,180)"/><rect x="285" y="187" width="14" height="14" transform="rotate(0,292,194)"/><rect x="285" y="201" width="14" height="14" transform="rotate(0,292,208)"/><rect x="285" y="243" width="14" height="14" transform="rotate(0,292,250)"/><path d="M 285 271v 14h 7a 7 7, 0, 0, 0, 0 -14" transform="rotate(-90,292,278)"/><path d="M 285 285v 14h 7a 7 7, 0, 0, 0, 0 -14" transform="rotate(90,292,292)"/><path d="M 285 327v 14h 7a 7 7, 0, 0, 0, 0 -14" transform="rotate(180,292,334)"/><path d="M 285 355v 14h 7a 7 7, 0, 0, 0, 0 -14" transform="rotate(-90,292,362)"/><path d="M 285 369v 14h 14v -7a 7 7, 0, 0, 0, -7 -7" transform="rotate(90,292,376)"/><path d="M 285 411v 14h 7a 7 7, 0, 0, 0, 0 -14" transform="rotate(0,292,418)"/><path d="M 299 61v 14h 7a 7 7, 0, 0, 0, 0 -14" transform="rotate(180,306,68)"/><circle cx="306" cy="110" r="7" transform="rotate(0,306,110)"/><circle cx="306" cy="152" r="7" transform="rotate(0,306,152)"/><rect x="299" y="201" width="14" height="14" transform="rotate(0,306,208)"/><path d="M 299 243v 14h 7a 7 7, 0, 0, 0, 0 -14" transform="rotate(0,306,250)"/><rect x="299" y="327" width="14" height="14" transform="rotate(0,306,334)"/><path d="M 299 425v 14h 7a 7 7, 0, 0, 0, 0 -14" transform="rotate(-90,306,432)"/><rect x="299" y="439" width="14" height="14" transform="rotate(0,306,446)"/><path d="M 299 453v 14h 7a 7 7, 0, 0, 0, 0 -14" transform="rotate(90,306,460)"/><circle cx="320" cy="26" r="7" transform="rotate(0,320,26)"/><path d="M 313 47v 14h 7a 7 7, 0, 0, 0, 0 -14" transform="rotate(-90,320,54)"/><rect x="313" y="61" width="14" height="14" transform="rotate(0,320,68)"/><path d="M 313 75v 14h 14v -7a 7 7, 0, 0, 0, -7 -7" transform="rotate(180,320,82)"/><path d="M 313 117v 14h 7a 7 7, 0, 0, 0, 0 -14" transform="rotate(-90,320,124)"/><path d="M 313 131v 14h 7a 7 7, 0, 0, 0, 0 -14" transform="rotate(90,320,138)"/><circle cx="320" cy="180" r="7" transform="rotate(0,320,180)"/><rect x="313" y="201" width="14" height="14" transform="rotate(0,320,208)"/><path d="M 313 215v 14h 14v -7a 7 7, 0, 0, 0, -7 -7" transform="rotate(180,320,222)"/><path d="M 313 271v 14h 7a 7 7, 0, 0, 0, 0 -14" transform="rotate(180,320,278)"/><path d="M 313 299v 14h 7a 7 7, 0, 0, 0, 0 -14" transform="rotate(180,320,306)"/><rect x="313" y="327" width="14" height="14" transform="rotate(0,320,334)"/><path d="M 313 383v 14h 14v -7a 7 7, 0, 0, 0, -7 -7" transform="rotate(-90,320,390)"/><path d="M 313 397v 14h 14v -7a 7 7, 0, 0, 0, -7 -7" transform="rotate(180,320,404)"/><rect x="313" y="439" width="14" height="14" transform="rotate(0,320,446)"/><path d="M 313 467v 14h 7a 7 7, 0, 0, 0, 0 -14" transform="rotate(180,320,474)"/><rect x="327" y="61" width="14" height="14" transform="rotate(0,334,68)"/><path d="M 327 75v 14h 14v -7a 7 7, 0, 0, 0, -7 -7" transform="rotate(90,334,82)"/><circle cx="334" cy="110" r="7" transform="rotate(0,334,110)"/><circle cx="334" cy="166" r="7" transform="rotate(0,334,166)"/><path d="M 327 187v 14h 7a 7 7, 0, 0, 0, 0 -14" transform="rotate(-90,334,194)"/><rect x="327" y="201" width="14" height="14" transform="rotate(0,334,208)"/><rect x="327" y="215" width="14" height="14" transform="rotate(0,334,222)"/><path d="M 327 229v 14h 14v -7a 7 7, 0, 0, 0, -7 -7" transform="rotate(180,334,236)"/><rect x="327" y="271" width="14" height="14" transform="rotate(0,334,278)"/><rect x="327" y="285" width="14" height="14" transform="rotate(0,334,292)"/><rect x="327" y="299" width="14" height="14" transform="rotate(0,334,306)"/><path d="M 327 327v 14h 7a 7 7, 0, 0, 0, 0 -14" transform="rotate(0,334,334)"/><path d="M 327 369v 14h 7a 7 7, 0, 0, 0, 0 -14" transform="rotate(-90,334,376)"/><rect x="327" y="383" width="14" height="14" transform="rotate(0,334,390)"/><path d="M 327 397v 14h 14v -7a 7 7, 0, 0, 0, -7 -7" transform="rotate(90,334,404)"/><path d="M 327 439v 14h 14v -7a 7 7, 0, 0, 0, -7 -7" transform="rotate(0,334,446)"/><rect x="327" y="453" width="14" height="14" transform="rotate(0,334,460)"/><path d="M 327 467v 14h 14v -7a 7 7, 0, 0, 0, -7 -7" transform="rotate(90,334,474)"/><circle cx="348" cy="40" r="7" transform="rotate(0,348,40)"/><rect x="341" y="61" width="14" height="14" transform="rotate(0,348,68)"/><path d="M 341 89v 14h 7a 7 7, 0, 0, 0, 0 -14" transform="rotate(180,348,96)"/><circle cx="348" cy="124" r="7" transform="rotate(0,348,124)"/><path d="M 341 173v 14h 7a 7 7, 0, 0, 0, 0 -14" transform="rotate(180,348,180)"/><rect x="341" y="215" width="14" height="14" transform="rotate(0,348,222)"/><rect x="341" y="229" width="14" height="14" transform="rotate(0,348,236)"/><path d="M 341 257v 14h 7a 7 7, 0, 0, 0, 0 -14" transform="rotate(-90,348,264)"/><rect x="341" y="271" width="14" height="14" transform="rotate(0,348,278)"/><path d="M 341 299v 14h 7a 7 7, 0, 0, 0, 0 -14" transform="rotate(0,348,306)"/><path d="M 341 341v 14h 14v -7a 7 7, 0, 0, 0, -7 -7" transform="rotate(-90,348,348)"/><path d="M 341 355v 14h 14v -7a 7 7, 0, 0, 0, -7 -7" transform="rotate(180,348,362)"/><rect x="341" y="383" width="14" height="14" transform="rotate(0,348,390)"/><circle cx="348" cy="432" r="7" transform="rotate(0,348,432)"/><circle cx="362" cy="26" r="7" transform="rotate(0,362,26)"/><path d="M 355 61v 14h 7a 7 7, 0, 0, 0, 0 -14" transform="rotate(0,362,68)"/><path d="M 355 89v 14h 14v -7a 7 7, 0, 0, 0, -7 -7" transform="rotate(0,362,96)"/><path d="M 355 103v 14h 7a 7 7, 0, 0, 0, 0 -14" transform="rotate(90,362,110)"/><path d="M 355 131v 14h 14v -7a 7 7, 0, 0, 0, -7 -7" transform="rotate(-90,362,138)"/><rect x="355" y="145" width="14" height="14" transform="rotate(0,362,152)"/><rect x="355" y="159" width="14" height="14" transform="rotate(0,362,166)"/><path d="M 355 173v 14h 14v -7a 7 7, 0, 0, 0, -7 -7" transform="rotate(90,362,180)"/><path d="M 355 201v 14h 14v -7a 7 7, 0, 0, 0, -7 -7" transform="rotate(-90,362,208)"/><rect x="355" y="215" width="14" height="14" transform="rotate(0,362,222)"/><path d="M 355 229v 14h 14v -7a 7 7, 0, 0, 0, -7 -7" transform="rotate(90,362,236)"/><path d="M 355 271v 14h 14v -7a 7 7, 0, 0, 0, -7 -7" transform="rotate(0,362,278)"/><path d="M 355 285v 14h 14v -7a 7 7, 0, 0, 0, -7 -7" transform="rotate(180,362,292)"/><path d="M 355 327v 14h 14v -7a 7 7, 0, 0, 0, -7 -7" transform="rotate(-90,362,334)"/><rect x="355" y="341" width="14" height="14" transform="rotate(0,362,348)"/><rect x="355" y="355" width="14" height="14" transform="rotate(0,362,362)"/><rect x="355" y="369" width="14" height="14" transform="rotate(0,362,376)"/><rect x="355" y="383" width="14" height="14" transform="rotate(0,362,390)"/><rect x="355" y="397" width="14" height="14" transform="rotate(0,362,404)"/><path d="M 355 411v 14h 14v -7a 7 7, 0, 0, 0, -7 -7" transform="rotate(180,362,418)"/><path d="M 369 131v 14h 7a 7 7, 0, 0, 0, 0 -14" transform="rotate(0,376,138)"/><rect x="369" y="201" width="14" height="14" transform="rotate(0,376,208)"/><rect x="369" y="215" width="14" height="14" transform="rotate(0,376,222)"/><path d="M 369 243v 14h 7a 7 7, 0, 0, 0, 0 -14" transform="rotate(180,376,250)"/><rect x="369" y="285" width="14" height="14" transform="rotate(0,376,292)"/><path d="M 369 313v 14h 14v -7a 7 7, 0, 0, 0, -7 -7" transform="rotate(-90,376,320)"/><path d="M 369 327v 14h 14v -7a 7 7, 0, 0, 0, -7 -7" transform="rotate(90,376,334)"/><rect x="369" y="355" width="14" height="14" transform="rotate(0,376,362)"/><rect x="369" y="411" width="14" height="14" transform="rotate(0,376,418)"/><path d="M 369 425v 14h 7a 7 7, 0, 0, 0, 0 -14" transform="rotate(90,376,432)"/><circle cx="376" cy="460" r="7" transform="rotate(0,376,460)"/><path d="M 383 145v 14h 7a 7 7, 0, 0, 0, 0 -14" transform="rotate(-90,390,152)"/><path d="M 383 159v 14h 7a 7 7, 0, 0, 0, 0 -14" transform="rotate(90,390,166)"/><path d="M 383 201v 14h 14v -7a 7 7, 0, 0, 0, -7 -7" transform="rotate(0,390,208)"/><rect x="383" y="215" width="14" height="14" transform="rotate(0,390,222)"/><rect x="383" y="229" width="14" height="14" transform="rotate(0,390,236)"/><path d="M 383 243v 14h 14v -7a 7 7, 0, 0, 0, -7 -7" transform="rotate(90,390,250)"/><path d="M 383 285v 14h 14v -7a 7 7, 0, 0, 0, -7 -7" transform="rotate(0,390,292)"/><rect x="383" y="299" width="14" height="14" transform="rotate(0,390,306)"/><path d="M 383 313v 14h 14v -7a 7 7, 0, 0, 0, -7 -7" transform="rotate(90,390,320)"/><path d="M 383 341v 14h 14v -7a 7 7, 0, 0, 0, -7 -7" transform="rotate(-90,390,348)"/><rect x="383" y="355" width="14" height="14" transform="rotate(0,390,362)"/><circle cx="390" cy="390" r="7" transform="rotate(0,390,390)"/><rect x="383" y="411" width="14" height="14" transform="rotate(0,390,418)"/><circle cx="404" cy="138" r="7" transform="rotate(0,404,138)"/><path d="M 397 215v 14h 14v -7a 7 7, 0, 0, 0, -7 -7" transform="rotate(0,404,222)"/><path d="M 397 229v 14h 14v -7a 7 7, 0, 0, 0, -7 -7" transform="rotate(90,404,236)"/><path d="M 397 257v 14h 7a 7 7, 0, 0, 0, 0 -14" transform="rotate(180,404,264)"/><rect x="397" y="341" width="14" height="14" transform="rotate(0,404,348)"/><rect x="397" y="355" width="14" height="14" transform="rotate(0,404,362)"/><rect x="397" y="411" width="14" height="14" transform="rotate(0,404,418)"/><rect x="397" y="425" width="14" height="14" transform="rotate(0,404,432)"/><rect x="397" y="439" width="14" height="14" transform="rotate(0,404,446)"/><path d="M 397 453v 14h 7a 7 7, 0, 0, 0, 0 -14" transform="rotate(90,404,460)"/><path d="M 411 173v 14h 7a 7 7, 0, 0, 0, 0 -14" transform="rotate(-90,418,180)"/><rect x="411" y="187" width="14" height="14" transform="rotate(0,418,194)"/><path d="M 411 201v 14h 7a 7 7, 0, 0, 0, 0 -14" transform="rotate(90,418,208)"/><path d="M 411 243v 14h 7a 7 7, 0, 0, 0, 0 -14" transform="rotate(-90,418,250)"/><path d="M 411 257v 14h 14v -7a 7 7, 0, 0, 0, -7 -7" transform="rotate(90,418,264)"/><path d="M 411 327v 14h 14v -7a 7 7, 0, 0, 0, -7 -7" transform="rotate(-90,418,334)"/><rect x="411" y="341" width="14" height="14" transform="rotate(0,418,348)"/><rect x="411" y="355" width="14" height="14" transform="rotate(0,418,362)"/><rect x="411" y="369" width="14" height="14" transform="rotate(0,418,376)"/><rect x="411" y="383" width="14" height="14" transform="rotate(0,418,390)"/><rect x="411" y="397" width="14" height="14" transform="rotate(0,418,404)"/><path d="M 411 411v 14h 14v -7a 7 7, 0, 0, 0, -7 -7" transform="rotate(90,418,418)"/><path d="M 411 439v 14h 7a 7 7, 0, 0, 0, 0 -14" transform="rotate(0,418,446)"/><path d="M 411 467v 14h 7a 7 7, 0, 0, 0, 0 -14" transform="rotate(180,418,474)"/><path d="M 425 131v 14h 14v -7a 7 7, 0, 0, 0, -7 -7" transform="rotate(-90,432,138)"/><rect x="425" y="145" width="14" height="14" transform="rotate(0,432,152)"/><path d="M 425 159v 14h 14v -7a 7 7, 0, 0, 0, -7 -7" transform="rotate(180,432,166)"/><path d="M 425 215v 14h 7a 7 7, 0, 0, 0, 0 -14" transform="rotate(180,432,222)"/><path d="M 425 271v 14h 7a 7 7, 0, 0, 0, 0 -14" transform="rotate(-90,432,278)"/><path d="M 425 285v 14h 7a 7 7, 0, 0, 0, 0 -14" transform="rotate(90,432,292)"/><path d="M 425 327v 14h 14v -7a 7 7, 0, 0, 0, -7 -7" transform="rotate(0,432,334)"/><rect x="425" y="341" width="14" height="14" transform="rotate(0,432,348)"/><rect x="425" y="355" width="14" height="14" transform="rotate(0,432,362)"/><rect x="425" y="397" width="14" height="14" transform="rotate(0,432,404)"/><path d="M 425 453v 14h 7a 7 7, 0, 0, 0, 0 -14" transform="rotate(-90,432,460)"/><path d="M 425 467v 14h 14v -7a 7 7, 0, 0, 0, -7 -7" transform="rotate(90,432,474)"/><rect x="439" y="131" width="14" height="14" transform="rotate(0,446,138)"/><rect x="439" y="145" width="14" height="14" transform="rotate(0,446,152)"/><rect x="439" y="159" width="14" height="14" transform="rotate(0,446,166)"/><path d="M 439 187v 14h 14v -7a 7 7, 0, 0, 0, -7 -7" transform="rotate(-90,446,194)"/><rect x="439" y="201" width="14" height="14" transform="rotate(0,446,208)"/><path d="M 439 215v 14h 14v -7a 7 7, 0, 0, 0, -7 -7" transform="rotate(90,446,222)"/><circle cx="446" cy="264" r="7" transform="rotate(0,446,264)"/><path d="M 439 299v 14h 14v -7a 7 7, 0, 0, 0, -7 -7" transform="rotate(-90,446,306)"/><path d="M 439 313v 14h 7a 7 7, 0, 0, 0, 0 -14" transform="rotate(90,446,320)"/><rect x="439" y="341" width="14" height="14" transform="rotate(0,446,348)"/><rect x="439" y="355" width="14" height="14" transform="rotate(0,446,362)"/><rect x="439" y="369" width="14" height="14" transform="rotate(0,446,376)"/><rect x="439" y="383" width="14" height="14" transform="rotate(0,446,390)"/><rect x="439" y="397" width="14" height="14" transform="rotate(0,446,404)"/><circle cx="446" cy="432" r="7" transform="rotate(0,446,432)"/><path d="M 453 131v 14h 14v -7a 7 7, 0, 0, 0, -7 -7" transform="rotate(0,460,138)"/><rect x="453" y="145" width="14" height="14" transform="rotate(0,460,152)"/><path d="M 453 159v 14h 14v -7a 7 7, 0, 0, 0, -7 -7" transform="rotate(90,460,166)"/><path d="M 453 187v 14h 7a 7 7, 0, 0, 0, 0 -14" transform="rotate(0,460,194)"/><path d="M 453 243v 14h 7a 7 7, 0, 0, 0, 0 -14" transform="rotate(180,460,250)"/><path d="M 453 299v 14h 7a 7 7, 0, 0, 0, 0 -14" transform="rotate(0,460,306)"/><path d="M 453 341v 14h 7a 7 7, 0, 0, 0, 0 -14" transform="rotate(0,460,348)"/><path d="M 453 369v 14h 7a 7 7, 0, 0, 0, 0 -14" transform="rotate(0,460,376)"/><path d="M 453 397v 14h 14v -7a 7 7, 0, 0, 0, -7 -7" transform="rotate(0,460,404)"/><path d="M 453 411v 14h 14v -7a 7 7, 0, 0, 0, -7 -7" transform="rotate(180,460,418)"/><circle cx="460" cy="474" r="7" transform="rotate(0,460,474)"/><path d="M 467 145v 14h 7a 7 7, 0, 0, 0, 0 -14" transform="rotate(0,474,152)"/><path d="M 467 201v 14h 7a 7 7, 0, 0, 0, 0 -14" transform="rotate(-90,474,208)"/><path d="M 467 215v 14h 7a 7 7, 0, 0, 0, 0 -14" transform="rotate(90,474,222)"/><path d="M 467 243v 14h 14v -7a 7 7, 0, 0, 0, -7 -7" transform="rotate(0,474,250)"/><path d="M 467 257v 14h 7a 7 7, 0, 0, 0, 0 -14" transform="rotate(90,474,264)"/><circle cx="474" cy="292" r="7" transform="rotate(0,474,292)"/><circle cx="474" cy="320" r="7" transform="rotate(0,474,320)"/><path d="M 467 411v 14h 7a 7 7, 0, 0, 0, 0 -14" transform="rotate(0,474,418)"/><circle cx="474" cy="446" r="7" transform="rotate(0,474,446)"/></clipPath><clipPath id="clip-path-corners-square-color-0-0"><path clip-rule="evenodd" d="M 19 54v 28a 35 35, 0, 0, 0, 35 35h 28a 35 35, 0, 0, 0, 35 -35v -28a 35 35, 0, 0, 0, -35 -35h -28a 35 35, 0, 0, 0, -35 35M 54 33h 28a 21 21, 0, 0, 1, 21 21v 28a 21 21, 0, 0, 1, -21 21h -28a 21 21, 0, 0, 1, -21 -21v -28a 21 21, 0, 0, 1, 21 -21" transform="rotate(0,68,68)"/></clipPath><clipPath id="clip-path-corners-dot-color-0-0"><circle cx="68" cy="68" r="21" transform="rotate(0,68,68)"/></clipPath><clipPath id="clip-path-corners-square-color-1-0"><path clip-rule="evenodd" d="M 383 54v 28a 35 35, 0, 0, 0, 35 35h 28a 35 35, 0, 0, 0, 35 -35v -28a 35 35, 0, 0, 0, -35 -35h -28a 35 35, 0, 0, 0, -35 35M 418 33h 28a 21 21, 0, 0, 1, 21 21v 28a 21 21, 0, 0, 1, -21 21h -28a 21 21, 0, 0, 1, -21 -21v -28a 21 21, 0, 0, 1, 21 -21" transform="rotate(90,432,68)"/></clipPath><clipPath id="clip-path-corners-dot-color-1-0"><circle cx="432" cy="68" r="21" transform="rotate(90,432,68)"/></clipPath><clipPath id="clip-path-corners-square-color-0-1"><path clip-rule="evenodd" d="M 19 418v 28a 35 35, 0, 0, 0, 35 35h 28a 35 35, 0, 0, 0, 35 -35v -28a 35 35, 0, 0, 0, -35 -35h -28a 35 35, 0, 0, 0, -35 35M 54 397h 28a 21 21, 0, 0, 1, 21 21v 28a 21 21, 0, 0, 1, -21 21h -28a 21 21, 0, 0, 1, -21 -21v -28a 21 21, 0, 0, 1, 21 -21" transform="rotate(-90,68,432)"/></clipPath><clipPath id="clip-path-corners-dot-color-0-1"><circle cx="68" cy="432" r="21" transform="rotate(-90,68,432)"/></clipPath></defs><rect x="0" y="0" height="500" width="500" clip-path="url('#clip-path-background-color')" fill="#fff"/><rect x="0" y="0" height="500" width="500" clip-path="url('#clip-path-dot-color')" fill="#E83223"/><rect x="19" y="19" height="98" width="98" clip-path="url('#clip-path-corners-square-color-0-0')" fill="#E83223"/><rect x="47" y="47" height="42" width="42" clip-path="url('#clip-path-corners-dot-color-0-0')" fill="#E83223"/><rect x="383" y="19" height="98" width="98" clip-path="url('#clip-path-corners-square-color-1-0')" fill="#E83223"/><rect x="411" y="47" height="42" width="42" clip-path="url('#clip-path-corners-dot-color-1-0')" fill="#E83223"/><rect x="19" y="383" height="98" width="98" clip-path="url('#clip-path-corners-square-color-0-1')" fill="#E83223"/><rect x="47" y="411" height="42" width="42" clip-path="url('#clip-path-corners-dot-color-0-1')" fill="#E83223"/></svg>